# xmcd
#
# Track frame offsets:
#	150
#	34337
#	47067
#	71400
#	116317
#	143175
#	168600
#	200857
#	221275
#
# Disc length: 3310 seconds
#
# Revision: 9
# Processed by: cddbd v1.5.2PL0 Copyright (c) Steve Scherf et al.
# Submitted via: audiograbber 1.83.01
#
DISCID=860cec09
DTITLE=J. S. Bach - Brandenburgische Konzerte
DYEAR=1991
DGENRE=Classical
TTITLE0=Branderburgisches Konzert Nr. 4 in G-Dur BWV 1049 (1) Allegro
TTITLE1=Branderburgisches Konzert Nr. 4 in G-Dur BWV 1049 (2) Andante
TTITLE2=Branderburgisches Konzert Nr. 4 in G-Dur BWV 1049 (3) Presto
TTITLE3=Branderburgisches Konzert Nr. 5 in D-Dur BWV 1050 (1) Allegro
TTITLE4=Branderburgisches Konzert Nr. 5 in D-Dur BWV 1050 (2) Affettuoso
TTITLE5=Branderburgisches Konzert Nr. 5 in D-Dur BWV 1050 (3) Allegro
TTITLE6=Branderburgisches Konzert Nr. 6 in B-Dur BWV 1051 (1) Allegro
TTITLE7=Branderburgisches Konzert Nr. 6 in B-Dur BWV 1051 (2) Adagio ma non tro
TTITLE7=ppo
TTITLE8=Branderburgisches Konzert Nr. 6 in B-Dur BWV 1051 (3) Allegro
EXTD=YEAR: 1991
EXTT0=
EXTT1=
EXTT2=
EXTT3=
EXTT4=
EXTT5=
EXTT6=
EXTT7=
EXTT8=
PLAYORDER=
